HIERARCHY
ROOT Hips
{
	OFFSET 57.148300 -5.227964 83.686699
	CHANNELS 6 Xposition Yposition Zposition Xrotation Yrotation Zrotation
	JOINT spine
	{
		OFFSET 0.000000 -0.342408 5.954384
		CHANNELS 3 Xrotation Yrotation Zrotation
		JOINT spine1
		{
			OFFSET 0.000000 -0.000001 8.856018
			CHANNELS 3 Xrotation Yrotation Zrotation
			JOINT spine2
			{
				OFFSET 0.000000 -0.000001 8.485672
				CHANNELS 3 Xrotation Yrotation Zrotation
				JOINT Neck
				{
					OFFSET 0.000000 -1.038703 21.786301
					CHANNELS 3 Xrotation Yrotation Zrotation
					JOINT Head
					{
						OFFSET 0.000000 -0.000001 6.582199
						CHANNELS 3 Xrotation Yrotation Zrotation
						End Site
						{
							OFFSET 0.000000 5.254357 15.932602
						}
					}
				}
				JOINT RightShoulder
				{
					OFFSET -3.573071 0.497524 9.163864
					CHANNELS 3 Xrotation Yrotation Zrotation
					JOINT RightArm
					{
						OFFSET 0.000000 -0.000002 12.019196
						CHANNELS 3 Xrotation Yrotation Zrotation
						JOINT RightArmRoll
						{
							OFFSET 0.000000 -0.000001 6.067535
							CHANNELS 3 Xrotation Yrotation Zrotation
							JOINT RightForeArm
							{
								OFFSET 0.000000 -0.000003 17.672607
								CHANNELS 3 Xrotation Yrotation Zrotation
								JOINT RightForeArmRoll
								{
									OFFSET 0.000000 -0.000001 6.808716
									CHANNELS 3 Xrotation Yrotation Zrotation
									JOINT RightHand
									{
										OFFSET 0.000000 -0.000002 13.663605
										CHANNELS 3 Xrotation Yrotation Zrotation
										End Site
										{
											OFFSET 0.000000 0.000000 0.100006
										}
									}
								}
							}
						}
					}
				}
				JOINT LeftShoulder
				{
					OFFSET 3.573071 0.497524 9.163864
					CHANNELS 3 Xrotation Yrotation Zrotation
					JOINT LeftArm
					{
						OFFSET 0.000000 -0.000002 12.019196
						CHANNELS 3 Xrotation Yrotation Zrotation
						JOINT LeftArmRoll
						{
							OFFSET 0.000000 -0.000001 6.067551
							CHANNELS 3 Xrotation Yrotation Zrotation
							JOINT LeftForeArm
							{
								OFFSET 0.000000 -0.000003 17.672592
								CHANNELS 3 Xrotation Yrotation Zrotation
								JOINT LeftForeArmRoll
								{
									OFFSET 0.000000 -0.000001 6.808716
									CHANNELS 3 Xrotation Yrotation Zrotation
									JOINT LeftHand
									{
										OFFSET 0.000000 -0.000002 13.663605
										CHANNELS 3 Xrotation Yrotation Zrotation
										End Site
										{
											OFFSET 0.000000 0.000000 0.100006
										}
									}
								}
							}
						}
					}
				}
			}
		}
	}
	JOINT RightUpLeg
	{
		OFFSET -5.277740 0.811859 -0.967796
		CHANNELS 3 Xrotation Yrotation Zrotation
		JOINT RightUpLegRoll
		{
			OFFSET 0.000000 -0.000003 16.021400
			CHANNELS 3 Xrotation Yrotation Zrotation
			JOINT RightLeg
			{
				OFFSET 0.000000 0.000003 -19.840096
				CHANNELS 3 Xrotation Yrotation Zrotation
				JOINT RightLegRoll
				{
					OFFSET 0.000000 -0.000003 19.904999
					CHANNELS 3 Xrotation Yrotation Zrotation
					JOINT RightFoot
					{
						OFFSET 0.000000 -0.000002 16.567497
						CHANNELS 3 Xrotation Yrotation Zrotation
						JOINT RightToeBase
						{
							OFFSET 0.000000 -0.000002 13.849602
							CHANNELS 3 Xrotation Yrotation Zrotation
							End Site
							{
								OFFSET 0.005871 0.773116 6.707275
							}
						}
					}
				}
			}
		}
	}
	JOINT LeftUpLeg
	{
		OFFSET 5.277740 0.811859 -0.967796
		CHANNELS 3 Xrotation Yrotation Zrotation
		JOINT LeftUpLegRoll
		{
			OFFSET 0.000000 -0.000003 16.021500
			CHANNELS 3 Xrotation Yrotation Zrotation
			JOINT LeftLeg
			{
				OFFSET 0.000000 -0.000003 19.839996
				CHANNELS 3 Xrotation Yrotation Zrotation
				JOINT LeftLegRoll
				{
					OFFSET 0.000000 -0.000003 20.089005
					CHANNELS 3 Xrotation Yrotation Zrotation
					JOINT LeftFoot
					{
						OFFSET 0.000000 -0.000003 16.383499
						CHANNELS 3 Xrotation Yrotation Zrotation
						JOINT LeftToeBase
						{
							OFFSET 0.000000 -0.000002 13.849594
							CHANNELS 3 Xrotation Yrotation Zrotation
							End Site
							{
								OFFSET -0.026310 0.773116 6.707275
							}
						}
					}
				}
			}
		}
	}
}
MOTION
Frames: 6
Frame Time: 0.041667
53.950695 -2.565163 72.078308 1.233499 1.767680 8.901153 1.882344 -0.625033 0.127697 7.769381 -1.243622 0.271429 9.414646 -1.240291 0.286293 -17.252788 11.193661 -8.418425 -5.521139 -16.332753 -12.157074 -9.546739 -54.991830 -10.979254 -29.631932 -132.726708 -52.698089 0.000002 -0.000004 0.000001 -0.026646 3.640511 -1.990856 -0.000000 0.000002 -3.011611 -5.000162 -7.999929 0.000034 -6.261983 54.023146 6.899459 -31.046505 138.071851 56.742893 0.000003 -0.000000 -0.000003 -0.026938 -3.639491 1.990897 -0.000005 -0.000015 3.011610 -5.000172 7.999938 -0.000017 -35.079633 -181.349596 4.596923 179.999991 -0.000005 -1.626003 112.883595 -0.011666 -2.315632 -0.000000 0.000000 2.504759 89.028080 6.851083 -0.212220 35.226106 -7.255537 1.230666 -40.208695 -173.759125 4.405872 -0.000006 -0.000004 -1.734170 -71.372567 -5.637818 -1.260259 0.000000 -0.000002 -2.767629 80.932885 -6.209191 -3.569114 39.876806 6.707998 -3.469620 
53.985294 -2.721581 72.129410 1.281831 1.799220 8.896430 1.847600 -0.631910 0.128061 7.699934 -1.257363 0.273404 9.345187 -1.254008 0.288404 -17.392797 11.226440 -8.405775 -5.229011 -16.263044 -12.130236 -9.771501 -54.807624 -11.247982 -29.650797 -132.923923 -52.875121 0.000002 -0.000004 -0.000002 -0.026645 3.640511 -1.990854 -0.000000 0.000002 -3.011607 -5.000162 -7.999930 0.000031 -6.369955 54.021868 7.026740 -31.050658 138.136792 56.791698 0.000002 -0.000000 -0.000001 -0.026939 -3.639490 1.990897 -0.000004 -0.000014 3.011609 -5.000173 7.999938 -0.000016 -35.103986 -181.321373 4.611289 179.999991 -0.000004 -1.623995 112.925683 -0.033892 -2.326120 -0.000004 0.000000 2.501179 88.954389 6.850800 -0.192306 35.285392 -7.254220 1.238320 -40.188888 -173.845117 4.350098 -0.000007 -0.000004 -1.725100 -71.234857 -5.597703 -1.212841 -0.000002 -0.000002 -2.754120 81.022060 -6.210379 -3.561241 39.777946 6.725364 -3.412982 
53.897995 -2.590822 72.070114 1.404072 1.835999 8.914016 1.791834 -0.643851 0.128915 7.588458 -1.281224 0.276781 9.233726 -1.277820 0.292032 -17.488016 11.316274 -8.393228 -4.946704 -16.214478 -12.124360 -10.047563 -54.565155 -11.576774 -29.600223 -133.124690 -53.000885 0.000002 -0.000004 -0.000001 -0.026645 3.640511 -1.990859 -0.000000 0.000002 -3.011611 -5.000162 -7.999930 0.000031 -6.448169 54.080622 7.124456 -31.062297 138.155193 56.809296 0.000003 -0.000000 -0.000003 -0.026938 -3.639491 1.990899 -0.000005 -0.000015 3.011608 -5.000174 7.999939 -0.000015 -35.203953 -181.273180 4.621306 179.999991 -0.000004 -1.620006 112.986130 -0.064046 -2.340980 0.000000 0.000001 2.494690 88.870453 6.851017 -0.171379 35.332770 -7.253094 1.244555 -40.229374 -173.916506 4.304321 -0.000003 -0.000005 -1.713340 -71.058256 -5.556559 -1.165148 -0.000004 -0.000002 -2.738449 81.129226 -6.212193 -3.549833 39.629383 6.745507 -3.350239 
53.900394 -2.569362 72.084518 1.589496 1.877248 8.950467 1.718016 -0.660074 0.130161 7.440906 -1.313667 0.281247 9.086167 -1.310206 0.296847 -17.545516 11.455594 -8.380354 -4.671890 -16.185180 -12.135828 -10.364942 -54.271614 -11.953803 -29.490609 -133.326891 -53.083575 0.000002 -0.000003 0.000003 -0.026645 3.640511 -1.990854 0.000000 0.000002 -3.011608 -5.000162 -7.999930 0.000035 -6.501490 54.191073 7.197597 -31.079604 138.132516 56.798398 0.000002 0.000000 0.000001 -0.026938 -3.639491 1.990901 -0.000005 -0.000015 3.011608 -5.000173 7.999938 -0.000018 -35.366737 -181.209454 4.627652 179.999991 -0.000004 -1.614993 113.066391 -0.101873 -2.361218 -0.000000 0.000000 2.485479 88.775705 6.851665 -0.149704 35.369926 -7.252154 1.249574 -40.319604 -173.975273 4.266867 -0.000003 -0.000004 -1.699260 -70.844409 -5.514234 -1.116938 -0.000001 -0.000002 -2.720658 81.249615 -6.214685 -3.535056 39.438311 6.767766 -3.282397 
53.897198 -2.535531 72.118408 1.827372 1.922253 9.002331 1.629105 -0.679798 0.131703 7.263176 -1.353149 0.286468 8.908451 -1.349626 0.302503 -17.572460 11.636660 -8.366932 -4.402229 -16.172951 -12.161424 -10.713934 -53.934411 -12.367588 -29.330803 -133.531114 -53.129115 0.000001 -0.000004 0.000004 -0.026645 3.640511 -1.990853 -0.000000 0.000002 -3.011608 -5.000162 -7.999930 0.000037 -6.534588 54.345005 7.250876 -31.101198 138.073312 56.762495 0.000003 -0.000000 0.000000 -0.026938 -3.639491 1.990899 -0.000004 -0.000015 3.011611 -5.000172 7.999938 -0.000016 -35.579183 -181.133038 4.629813 179.999991 -0.000004 -1.607999 113.167765 -0.145963 -2.385076 0.000001 0.000000 2.473700 88.669543 6.852729 -0.127832 35.398702 -7.251352 1.253595 -40.448776 -174.024327 4.236818 -0.000003 -0.000005 -1.683229 -70.595032 -5.470505 -1.068075 0.000000 -0.000002 -2.700849 81.378658 -6.217730 -3.517339 39.211973 6.791550 -3.210507 
53.997295 -2.548201 72.224800 2.106978 1.970318 9.066197 1.528064 -0.702248 0.133447 7.061213 -1.398119 0.292133 8.706488 -1.394519 0.308661 -17.576110 11.852201 -8.352557 -4.135418 -16.175585 -12.197806 -11.085101 -53.560923 -12.806950 -29.130914 -133.735282 -53.145675 0.000002 -0.000004 0.000001 -0.026646 3.640510 -1.990854 0.000000 0.000002 -3.011607 -5.000162 -7.999930 0.000031 -6.552051 54.534259 7.288943 -31.124718 137.983796 56.703687 0.000002 -0.000000 -0.000000 -0.026937 -3.639491 1.990899 -0.000005 -0.000015 3.011609 -5.000172 7.999939 -0.000020 -35.828468 -181.045967 4.626704 179.999991 -0.000004 -1.598997 113.291528 -0.195337 -2.411740 0.000002 0.000000 2.459540 88.551374 6.854289 -0.105839 35.420996 -7.250664 1.256848 -40.606069 -174.065773 4.212593 -0.000002 -0.000004 -1.665610 -70.311873 -5.425184 -1.018229 -0.000004 -0.000002 -2.679070 81.511682 -6.221326 -3.496841 38.957394 6.816297 -3.135585 
